<mxfile host="app.diagrams.net" modified="2023-09-06T04:53:49.241Z" agent="Mozilla/5.0 (Macintosh; Intel Mac OS X 10_15_7) AppleWebKit/605.1.15 (KHTML, like Gecko) Version/15.6.1 Safari/605.1.15" version="21.7.2" etag="LvZgBeA2mxtoVSUPDBLE" type="github">
  <diagram name="PÃ¡gina-1" id="pBLj1FQV3sYtwKK9olZy">
    <mxGraphModel>
      <root>
        <mxCell id="0" />
        <mxCell id="1" parent="0" />
      </root>
    </mxGraphModel>
  </diagram>
</mxfile>
